<svg width="24" height="22" viewBox="0 0 24 22" fill="none" xmlns="http://www.w3.org/2000/svg">
<path d="M0.922852 4.30773C0.922852 3.38967 1.28755 2.50922 1.93671 1.86005C2.58588 1.21089 3.46633 0.846191 4.38439 0.846191H6.11516C6.42118 0.846191 6.71466 0.967757 6.93105 1.18415C7.14744 1.40053 7.26901 1.69402 7.26901 2.00004C7.26901 2.30606 7.14744 2.59954 6.93105 2.81593C6.71466 3.03232 6.42118 3.15388 6.11516 3.15388H4.38439C4.07837 3.15388 3.78489 3.27545 3.5685 3.49184C3.35211 3.70823 3.23054 4.00171 3.23054 4.30773V6.0385C3.23054 6.34452 3.10898 6.638 2.89259 6.85439C2.6762 7.07078 2.38272 7.19235 2.0767 7.19235C1.77068 7.19235 1.47719 7.07078 1.26081 6.85439C1.04442 6.638 0.922852 6.34452 0.922852 6.0385V4.30773ZM17.6536 2.00004C17.6536 1.69402 17.7752 1.40053 17.9916 1.18415C18.208 0.967757 18.5014 0.846191 18.8075 0.846191H20.5382C21.4563 0.846191 22.3368 1.21089 22.9859 1.86005C23.6351 2.50922 23.9998 3.38967 23.9998 4.30773V6.0385C23.9998 6.34452 23.8782 6.638 23.6618 6.85439C23.4454 7.07078 23.1519 7.19235 22.8459 7.19235C22.5399 7.19235 22.2464 7.07078 22.03 6.85439C21.8136 6.638 21.6921 6.34452 21.6921 6.0385V4.30773C21.6921 4.00171 21.5705 3.70823 21.3541 3.49184C21.1377 3.27545 20.8443 3.15388 20.5382 3.15388H18.8075C18.5014 3.15388 18.208 3.03232 17.9916 2.81593C17.7752 2.59954 17.6536 2.30606 17.6536 2.00004ZM2.0767 15.2693C2.38272 15.2693 2.6762 15.3908 2.89259 15.6072C3.10898 15.8236 3.23054 16.1171 3.23054 16.4231V18.1539C3.23054 18.4599 3.35211 18.7534 3.5685 18.9698C3.78489 19.1862 4.07837 19.3077 4.38439 19.3077H6.11516C6.42118 19.3077 6.71466 19.4293 6.93105 19.6457C7.14744 19.8621 7.26901 20.1556 7.26901 20.4616C7.26901 20.7676 7.14744 21.0611 6.93105 21.2775C6.71466 21.4939 6.42118 21.6154 6.11516 21.6154H4.38439C3.46633 21.6154 2.58588 21.2507 1.93671 20.6016C1.28755 19.9524 0.922852 19.0719 0.922852 18.1539V16.4231C0.922852 16.1171 1.04442 15.8236 1.26081 15.6072C1.47719 15.3908 1.77068 15.2693 2.0767 15.2693ZM22.8459 15.2693C23.1519 15.2693 23.4454 15.3908 23.6618 15.6072C23.8782 15.8236 23.9998 16.1171 23.9998 16.4231V18.1539C23.9998 19.0719 23.6351 19.9524 22.9859 20.6016C22.3368 21.2507 21.4563 21.6154 20.5382 21.6154H18.8075C18.5014 21.6154 18.208 21.4939 17.9916 21.2775C17.7752 21.0611 17.6536 20.7676 17.6536 20.4616C17.6536 20.1556 17.7752 19.8621 17.9916 19.6457C18.208 19.4293 18.5014 19.3077 18.8075 19.3077H20.5382C20.8443 19.3077 21.1377 19.1862 21.3541 18.9698C21.5705 18.7534 21.6921 18.4599 21.6921 18.1539V16.4231C21.6921 16.1171 21.8136 15.8236 22.03 15.6072C22.2464 15.3908 22.5399 15.2693 22.8459 15.2693ZM5.53824 5.17311C5.84425 5.17311 6.13774 5.29468 6.35413 5.51107C6.57052 5.72746 6.69208 6.02094 6.69208 6.32696V16.1347C6.69208 16.4407 6.57052 16.7342 6.35413 16.9505C6.13774 17.1669 5.84425 17.2885 5.53824 17.2885C5.23222 17.2885 4.93873 17.1669 4.72234 16.9505C4.50596 16.7342 4.38439 16.4407 4.38439 16.1347V6.32696C4.38439 6.02094 4.50596 5.72746 4.72234 5.51107C4.93873 5.29468 5.23222 5.17311 5.53824 5.17311ZM11.3075 6.32696C11.3075 6.02094 11.1859 5.72746 10.9695 5.51107C10.7531 5.29468 10.4596 5.17311 10.1536 5.17311C9.8476 5.17311 9.55412 5.29468 9.33773 5.51107C9.12134 5.72746 8.99977 6.02094 8.99977 6.32696V16.1347C8.99977 16.4407 9.12134 16.7342 9.33773 16.9505C9.55412 17.1669 9.8476 17.2885 10.1536 17.2885C10.4596 17.2885 10.7531 17.1669 10.9695 16.9505C11.1859 16.7342 11.3075 16.4407 11.3075 16.1347V6.32696ZM14.769 5.17311C15.075 5.17311 15.3685 5.29468 15.5849 5.51107C15.8013 5.72746 15.9229 6.02094 15.9229 6.32696V16.1347C15.9229 16.4407 15.8013 16.7342 15.5849 16.9505C15.3685 17.1669 15.075 17.2885 14.769 17.2885C14.463 17.2885 14.1695 17.1669 13.9531 16.9505C13.7367 16.7342 13.6152 16.4407 13.6152 16.1347V6.32696C13.6152 6.02094 13.7367 5.72746 13.9531 5.51107C14.1695 5.29468 14.463 5.17311 14.769 5.17311ZM20.5382 6.32696C20.5382 6.02094 20.4167 5.72746 20.2003 5.51107C19.9839 5.29468 19.6904 5.17311 19.3844 5.17311C19.0784 5.17311 18.7849 5.29468 18.5685 5.51107C18.3521 5.72746 18.2305 6.02094 18.2305 6.32696V16.1347C18.2305 16.4407 18.3521 16.7342 18.5685 16.9505C18.7849 17.1669 19.0784 17.2885 19.3844 17.2885C19.6904 17.2885 19.9839 17.1669 20.2003 16.9505C20.4167 16.7342 20.5382 16.4407 20.5382 16.1347V6.32696Z" fill="#25242E"/>
</svg>
