<svg width="18" height="18" viewBox="0 0 18 18" fill="none" xmlns="http://www.w3.org/2000/svg">
<path d="M4.875 10.5C5.17337 10.5 5.45952 10.3815 5.6705 10.1705C5.88147 9.95952 6 9.67337 6 9.375C6 9.07663 5.88147 8.79048 5.6705 8.5795C5.45952 8.36853 5.17337 8.25 4.875 8.25C4.57663 8.25 4.29048 8.36853 4.0795 8.5795C3.86853 8.79048 3.75 9.07663 3.75 9.375C3.75 9.67337 3.86853 9.95952 4.0795 10.1705C4.29048 10.3815 4.57663 10.5 4.875 10.5ZM6 13.125C6 13.4234 5.88147 13.7095 5.6705 13.9205C5.45952 14.1315 5.17337 14.25 4.875 14.25C4.57663 14.25 4.29048 14.1315 4.0795 13.9205C3.86853 13.7095 3.75 13.4234 3.75 13.125C3.75 12.8266 3.86853 12.5405 4.0795 12.3295C4.29048 12.1185 4.57663 12 4.875 12C5.17337 12 5.45952 12.1185 5.6705 12.3295C5.88147 12.5405 6 12.8266 6 13.125ZM9 14.25C9.29837 14.25 9.58452 14.1315 9.79549 13.9205C10.0065 13.7095 10.125 13.4234 10.125 13.125C10.125 12.8266 10.0065 12.5405 9.79549 12.3295C9.58452 12.1185 9.29837 12 9 12C8.70163 12 8.41548 12.1185 8.2045 12.3295C7.99353 12.5405 7.875 12.8266 7.875 13.125C7.875 13.4234 7.99353 13.7095 8.2045 13.9205C8.41548 14.1315 8.70163 14.25 9 14.25ZM10.125 9.375C10.125 9.67337 10.0065 9.95952 9.79549 10.1705C9.58452 10.3815 9.29837 10.5 9 10.5C8.70163 10.5 8.41548 10.3815 8.2045 10.1705C7.99353 9.95952 7.875 9.67337 7.875 9.375C7.875 9.07663 7.99353 8.79048 8.2045 8.5795C8.41548 8.36853 8.70163 8.25 9 8.25C9.29837 8.25 9.58452 8.36853 9.79549 8.5795C10.0065 8.79048 10.125 9.07663 10.125 9.375ZM13.125 10.5C13.4234 10.5 13.7095 10.3815 13.9205 10.1705C14.1315 9.95952 14.25 9.67337 14.25 9.375C14.25 9.07663 14.1315 8.79048 13.9205 8.5795C13.7095 8.36853 13.4234 8.25 13.125 8.25C12.8266 8.25 12.5405 8.36853 12.3295 8.5795C12.1185 8.79048 12 9.07663 12 9.375C12 9.67337 12.1185 9.95952 12.3295 10.1705C12.5405 10.3815 12.8266 10.5 13.125 10.5ZM0 3.75C0 2.75544 0.395088 1.80161 1.09835 1.09835C1.80161 0.395088 2.75544 0 3.75 0H14.25C15.2446 0 16.1984 0.395088 16.9016 1.09835C17.6049 1.80161 18 2.75544 18 3.75V14.25C18 15.2446 17.6049 16.1984 16.9016 16.9016C16.1984 17.6049 15.2446 18 14.25 18H3.75C2.75544 18 1.80161 17.6049 1.09835 16.9016C0.395088 16.1984 0 15.2446 0 14.25V3.75ZM3.75 1.5C3.15326 1.5 2.58097 1.73705 2.15901 2.15901C1.73705 2.58097 1.5 3.15326 1.5 3.75V4.5H16.5V3.75C16.5 3.15326 16.2629 2.58097 15.841 2.15901C15.419 1.73705 14.8467 1.5 14.25 1.5H3.75ZM1.5 14.25C1.5 14.8467 1.73705 15.419 2.15901 15.841C2.58097 16.2629 3.15326 16.5 3.75 16.5H14.25C14.8467 16.5 15.419 16.2629 15.841 15.841C16.2629 15.419 16.5 14.8467 16.5 14.25V6H1.5V14.25Z" fill="#3D43CC"/>
</svg>
