<svg width="16" height="22" viewBox="0 0 16 22" fill="none" xmlns="http://www.w3.org/2000/svg">
<path d="M3.37082 1.571C3.46324 1.26135 3.65318 0.989825 3.91238 0.796846C4.17158 0.603866 4.48617 0.499752 4.80932 0.5H11.4183C11.6606 0.500091 11.8993 0.558882 12.1139 0.671342C12.3286 0.783801 12.5128 0.946583 12.6507 1.14576C12.7887 1.34493 12.8764 1.57457 12.9063 1.81503C12.9362 2.05549 12.9074 2.29961 12.8223 2.5265L11.3328 6.5H14.3778C14.5894 6.50024 14.7966 6.56013 14.9756 6.6728C15.1547 6.78546 15.2984 6.94632 15.3901 7.13693C15.4819 7.32754 15.5181 7.54017 15.4945 7.7504C15.4709 7.96064 15.3885 8.15996 15.2568 8.3255L5.34632 20.7755C4.06532 22.385 1.50332 21.0575 2.07932 19.0835L3.99932 12.5H1.62482C1.44949 12.5003 1.27652 12.4596 1.11972 12.3811C0.962917 12.3027 0.82662 12.1887 0.721702 12.0482C0.616785 11.9077 0.546153 11.7447 0.515441 11.5721C0.484729 11.3994 0.494788 11.222 0.544815 11.054L3.37082 1.571ZM11.4198 2H4.80932L2.12732 11H4.99982C5.11625 11 5.23108 11.0271 5.33523 11.0792C5.43937 11.1313 5.52996 11.2069 5.59982 11.3C5.66968 11.3931 5.71689 11.5013 5.73772 11.6158C5.75855 11.7304 5.75242 11.8482 5.71982 11.96L3.51932 19.5035C3.48879 19.5884 3.49201 19.6819 3.52832 19.7645C3.56701 19.8413 3.62967 19.9035 3.70682 19.9415C3.79232 19.9865 3.88082 19.997 3.95282 19.985C4.04192 19.9677 4.12091 19.9166 4.17332 19.8425L13.5993 8H10.2498C10.1286 8 10.0091 7.97061 9.90174 7.91434C9.79434 7.85806 9.70219 7.7766 9.63317 7.67691C9.56416 7.57722 9.52034 7.46229 9.50548 7.34196C9.49061 7.22163 9.50514 7.09949 9.54782 6.986L11.4183 2H11.4198Z" fill="white"/>
</svg>
