<svg width="23" height="19" viewBox="0 0 23 19" fill="none" xmlns="http://www.w3.org/2000/svg">
<path d="M4.99145 2.58946C5.17903 2.68345 5.39595 2.70023 5.59575 2.63623C5.79555 2.57223 5.96235 2.43253 6.06041 2.24706L6.06255 2.24278C6.13355 2.13756 6.22014 2.04375 6.31936 1.96457C6.52266 1.80192 6.88219 1.60504 7.48996 1.60504C8.01642 1.60504 8.32459 1.85864 8.44443 2.09725C8.55464 2.31875 8.55464 2.61514 8.26038 2.91047C8.05173 3.11806 7.78315 3.29889 7.44074 3.49685C7.33778 3.55617 7.23434 3.61467 7.13044 3.67233C6.87363 3.81679 6.58258 3.97943 6.32471 4.14849C5.5147 4.67709 4.72609 5.4443 4.55381 6.8578C4.54003 6.97053 4.55033 7.0849 4.58404 7.19335C4.61774 7.3018 4.67408 7.40186 4.74933 7.48692C4.82458 7.57198 4.91702 7.6401 5.02056 7.68677C5.12409 7.73345 5.23634 7.75762 5.34991 7.75769H9.36251C9.57535 7.75769 9.77948 7.67314 9.92998 7.52264C10.0805 7.37214 10.165 7.16801 10.165 6.95517C10.165 6.74233 10.0805 6.53821 9.92998 6.38771C9.77948 6.2372 9.57535 6.15265 9.36251 6.15265H6.4713C6.6532 5.89264 6.90145 5.68826 7.20213 5.49138C7.41506 5.35227 7.62158 5.23778 7.85163 5.10831C7.97469 5.03983 8.10523 4.96706 8.24647 4.88574C8.61991 4.66853 9.03615 4.40423 9.39461 4.0447C10.1704 3.27 10.3041 2.22887 9.87933 1.38033C9.46416 0.548924 8.56855 0 7.48996 0C6.4927 0 5.78327 0.338128 5.31781 0.710498C5.07121 0.907456 4.85897 1.14393 4.6897 1.4103C4.67712 1.43144 4.66499 1.45284 4.65332 1.4745L4.64048 1.4959L4.6362 1.5066L4.63406 1.50981V1.51195L4.63192 1.51409C4.53686 1.70451 4.52133 1.9249 4.58876 2.12677C4.65618 2.32864 4.80103 2.49546 4.99145 2.59053V2.58946ZM14.8464 2.92545C14.7019 3.06028 14.4184 3.21008 13.9101 3.21008C13.6973 3.21008 13.4932 3.29463 13.3427 3.44513C13.1922 3.59563 13.1076 3.79976 13.1076 4.0126C13.1076 4.22544 13.1922 4.42957 13.3427 4.58007C13.4932 4.73057 13.6973 4.81512 13.9101 4.81512C14.4173 4.81512 14.7019 4.96492 14.8464 5.09975C14.9909 5.23457 15.0497 5.40256 15.039 5.57056C15.023 5.85198 14.7373 6.42016 13.6426 6.42016C13.1451 6.42016 12.8294 6.27357 12.6496 6.15372C12.5671 6.09895 12.4923 6.03346 12.4271 5.95898C12.3067 5.78749 12.124 5.66989 11.9181 5.63131C11.7121 5.59272 11.4992 5.6362 11.3249 5.75246C10.7 6.15372 11.1024 6.86529 11.1024 6.86529L11.1034 6.86636L11.1045 6.8685L11.1067 6.87171L11.112 6.88027L11.1259 6.89953L11.1644 6.95089C11.3351 7.15872 11.5355 7.3401 11.7594 7.48912C12.181 7.77053 12.8026 8.0252 13.6426 8.0252C15.3782 8.0252 16.5638 6.98834 16.6419 5.66472C16.66 5.36186 16.6148 5.05855 16.5093 4.77411C16.4037 4.48966 16.2401 4.23032 16.0288 4.0126C16.4686 3.5557 16.6772 2.95755 16.6419 2.36048C16.5627 1.03686 15.3782 0 13.6426 0C12.8026 0 12.181 0.254666 11.7594 0.536083C11.5355 0.685098 11.3351 0.866478 11.1644 1.07431C11.1512 1.09116 11.1384 1.10829 11.1259 1.12567L11.112 1.14493L11.1067 1.15349L11.1045 1.1567L11.1034 1.15884L11.1024 1.15991C10.9822 1.33557 10.9367 1.55179 10.9759 1.76098C11.0152 1.97018 11.1359 2.15523 11.3116 2.27541C11.4872 2.3956 11.7034 2.44108 11.9126 2.40184C12.1218 2.36261 12.3069 2.24189 12.4271 2.06622C12.4923 1.99174 12.5671 1.92625 12.6496 1.87148C12.8305 1.75163 13.1451 1.60504 13.6426 1.60504C14.7373 1.60504 15.023 2.17322 15.0401 2.45464C15.0454 2.54265 15.0308 2.63072 14.9972 2.71225C14.9637 2.79379 14.9121 2.86668 14.8464 2.92545ZM12.4378 5.97503L12.4303 5.96326V5.9654L12.4346 5.96968L12.4356 5.97182L12.4378 5.97396V5.97503ZM12.4378 2.05124L12.4303 2.06194V2.0598L12.4346 2.05552L12.4356 2.05338L12.4378 2.05124ZM3.20451 0.961954L3.212 1.06896V6.95089C3.21408 7.15567 3.1378 7.3535 2.99877 7.50386C2.85975 7.65423 2.6685 7.74576 2.46418 7.75971C2.25987 7.77366 2.05795 7.70897 1.89978 7.5789C1.74161 7.44882 1.63915 7.2632 1.61338 7.06004L1.60696 6.95089V2.18499L1.05803 2.37011C0.87425 2.43163 0.674409 2.42457 0.495427 2.35022C0.316445 2.27588 0.170415 2.13927 0.0843099 1.96564L0.0415088 1.86399C-0.0200146 1.6802 -0.0129508 1.48036 0.0613955 1.30138C0.135742 1.1224 0.272348 0.976367 0.445979 0.890262L0.547631 0.847461L2.15374 0.309238C2.26576 0.271608 2.38471 0.259181 2.50208 0.272845C2.61946 0.286508 2.73237 0.325925 2.83275 0.388279C2.93313 0.450633 3.0185 0.534386 3.08277 0.633555C3.14703 0.732723 3.1886 0.844859 3.20451 0.961954ZM17.6841 5.08263H20.5924C20.8053 5.08263 21.0094 5.16718 21.1599 5.31768C21.3104 5.46818 21.395 5.67231 21.395 5.88515V16.0557C21.395 16.2686 21.3104 16.4727 21.1599 16.6232C21.0094 16.7737 20.8053 16.8583 20.5924 16.8583H4.01238C3.79954 16.8583 3.59541 16.7737 3.44491 16.6232C3.29441 16.4727 3.20986 16.2686 3.20986 16.0557V8.61799C2.96288 8.74523 2.6906 8.81567 2.41291 8.82419C2.13521 8.8327 1.85913 8.77907 1.60482 8.66722V16.0557C1.60482 16.6943 1.85847 17.3066 2.30998 17.7582C2.76148 18.2097 3.37385 18.4633 4.01238 18.4633H20.5924C21.231 18.4633 21.8433 18.2097 22.2948 17.7582C22.7463 17.3066 23 16.6943 23 16.0557V5.88515C23 5.24662 22.7463 4.63425 22.2948 4.18274C21.8433 3.73124 21.231 3.47759 20.5924 3.47759H17.5621C17.5033 3.66227 17.4281 3.84132 17.3374 4.0126C17.5161 4.34966 17.6327 4.71133 17.6841 5.08263ZM17.9227 13.6428H6.68744L6.5783 13.6503C6.37687 13.678 6.19347 13.7812 6.06515 13.9389C5.93684 14.0966 5.87318 14.2972 5.88704 14.5001C5.9009 14.7029 5.99124 14.893 6.13981 15.0318C6.28839 15.1706 6.48411 15.2478 6.68744 15.2479H17.9227L18.0319 15.2404C18.2333 15.2127 18.4167 15.1095 18.545 14.9518C18.6733 14.7941 18.737 14.5935 18.7231 14.3907C18.7093 14.1878 18.6189 13.9978 18.4704 13.859C18.3218 13.7201 18.1261 13.6429 17.9227 13.6428ZM18.1902 10.9678C18.1902 10.684 18.0775 10.4118 17.8768 10.2112C17.6762 10.0105 17.404 9.89775 17.1202 9.89775C16.8364 9.89775 16.5642 10.0105 16.3636 10.2112C16.1629 10.4118 16.0502 10.684 16.0502 10.9678C16.0502 11.2516 16.1629 11.5237 16.3636 11.7244C16.5642 11.9251 16.8364 12.0378 17.1202 12.0378C17.404 12.0378 17.6762 11.9251 17.8768 11.7244C18.0775 11.5237 18.1902 11.2516 18.1902 10.9678ZM11.7754 10.9678C11.7754 10.684 11.6627 10.4118 11.462 10.2112C11.2613 10.0105 10.9892 9.89775 10.7054 9.89775C10.4216 9.89775 10.1494 10.0105 9.94877 10.2112C9.7481 10.4118 9.63537 10.684 9.63537 10.9678C9.63537 11.2516 9.7481 11.5237 9.94877 11.7244C10.1494 11.9251 10.4216 12.0378 10.7054 12.0378C10.9892 12.0378 11.2613 11.9251 11.462 11.7244C11.6627 11.5237 11.7754 11.2516 11.7754 10.9678ZM8.56534 10.9678C8.56534 10.684 8.45261 10.4118 8.25194 10.2112C8.05127 10.0105 7.7791 9.89775 7.49531 9.89775C7.21153 9.89775 6.93936 10.0105 6.73869 10.2112C6.53802 10.4118 6.42529 10.684 6.42529 10.9678C6.42529 11.2516 6.53802 11.5237 6.73869 11.7244C6.93936 11.9251 7.21153 12.0378 7.49531 12.0378C7.7791 12.0378 8.05127 11.9251 8.25194 11.7244C8.45261 11.5237 8.56534 11.2516 8.56534 10.9678ZM14.9855 10.9678C14.9855 10.684 14.8728 10.4118 14.6721 10.2112C14.4714 10.0105 14.1993 9.89775 13.9155 9.89775C13.6317 9.89775 13.3595 10.0105 13.1589 10.2112C12.9582 10.4118 12.8454 10.684 12.8454 10.9678C12.8454 11.2516 12.9582 11.5237 13.1589 11.7244C13.3595 11.9251 13.6317 12.0378 13.9155 12.0378C14.1993 12.0378 14.4714 11.9251 14.6721 11.7244C14.8728 11.5237 14.9855 11.2516 14.9855 10.9678ZM19.7899 7.75769C19.7899 7.4739 19.6772 7.20174 19.4765 7.00107C19.2758 6.8004 19.0037 6.68767 18.7199 6.68767C18.4361 6.68767 18.1639 6.8004 17.9633 7.00107C17.7626 7.20174 17.6499 7.4739 17.6499 7.75769C17.6499 8.04148 17.7626 8.31365 17.9633 8.51432C18.1639 8.71498 18.4361 8.82772 18.7199 8.82772C19.0037 8.82772 19.2758 8.71498 19.4765 8.51432C19.6772 8.31365 19.7899 8.04148 19.7899 7.75769Z" fill="#25242E"/>
</svg>
